HIERARCHY
ROOT Hips
{
	OFFSET 0.000000 0.000000 0.000000
	CHANNELS 6 Xposition Yposition Zposition Zrotation Yrotation Xrotation 
	JOINT LowerBack
	{
		OFFSET 0.000000 0.000000 0.000000
		CHANNELS 3 Zrotation Yrotation Xrotation
		JOINT Spine
		{
			OFFSET 0.028270 2.035590 -0.193380
			CHANNELS 3 Zrotation Yrotation Xrotation
			JOINT Spine1
			{
				OFFSET 0.056720 2.048850 -0.042750
				CHANNELS 3 Zrotation Yrotation Xrotation
				JOINT Neck
				{
					OFFSET 0.000000 0.000000 0.000000
					CHANNELS 3 Zrotation Yrotation Xrotation
					JOINT Neck1
					{
						OFFSET -0.054170 1.746240 0.172020
						CHANNELS 3 Zrotation Yrotation Xrotation
						JOINT Head
						{
							OFFSET 0.104070 1.761360 -0.123970
							CHANNELS 3 Zrotation Yrotation Xrotation
							End Site
							{
								OFFSET 0.000000 0.000000 0.000000
							}
						}
					}
				}
				JOINT LeftShoulder
				{
					OFFSET 0.000000 0.000000 0.000000
					CHANNELS 3 Zrotation Yrotation Xrotation
					JOINT LeftArm
					{
						OFFSET 3.362410 1.200890 -0.311210
						CHANNELS 3 Zrotation Yrotation Xrotation
						JOINT LeftForeArm
						{
							OFFSET 4.983000 -0.000000 -0.000000
							CHANNELS 3 Zrotation Yrotation Xrotation
							JOINT LeftHand
							{
								OFFSET 3.483560 -0.000000 -0.000000
								CHANNELS 3 Zrotation Yrotation Xrotation
								JOINT LeftFingerBase
								{
									OFFSET 0.000000 0.000000 0.000000
									CHANNELS 3 Zrotation Yrotation Xrotation
									JOINT LeftHandIndex1
									{
										OFFSET 0.715260 -0.000000 -0.000000
										CHANNELS 3 Zrotation Yrotation Xrotation
										End Site
										{
											OFFSET 0.000000 0.000000 0.000000
										}
									}
								}
								JOINT LThumb
								{
									OFFSET 0.000000 0.000000 0.000000
									CHANNELS 3 Zrotation Yrotation Xrotation
									End Site
									{
										OFFSET 0.000000 0.000000 0.000000
									}
								}
							}
						}
					}
				}
				JOINT RightShoulder
				{
					OFFSET 0.000000 0.000000 0.000000
					CHANNELS 3 Zrotation Yrotation Xrotation
					JOINT RightArm
					{
						OFFSET -3.136600 1.374050 -0.404650
						CHANNELS 3 Zrotation Yrotation Xrotation
						JOINT RightForeArm
						{
							OFFSET -5.241900 -0.000000 -0.000000
							CHANNELS 3 Zrotation Yrotation Xrotation
							JOINT RightHand
							{
								OFFSET -3.444170 -0.000000 -0.000000
								CHANNELS 3 Zrotation Yrotation Xrotation
								JOINT RightFingerBase
								{
									OFFSET 0.000000 0.000000 0.000000
									CHANNELS 3 Zrotation Yrotation Xrotation
									JOINT RightHandIndex1
									{
										OFFSET -0.622530 -0.000000 -0.000000
										CHANNELS 3 Zrotation Yrotation Xrotation
										End Site
										{
											OFFSET 0.000000 0.000000 0.000000
										}
									}
								}
								JOINT RThumb
								{
									OFFSET 0.000000 0.000000 0.000000
									CHANNELS 3 Zrotation Yrotation Xrotation
									End Site
									{
										OFFSET 0.000000 0.000000 0.000000
									}
								}
							}
						}
					}
				}
			}
		}
	}
}
}
MOTION
Frames: 9
Frame Time: 0.008333
2.161784 16.615293 3.150655 12.439665 -41.099425 22.700196 -11.139921 0.170021 0.376252 -1.545661 0.937599 -3.818287 1.282547 0.855856 -5.084469 -4.725502 -0.815822 -3.203436 1.610716 0.043662 1.025423 0.000000 0.000000 0.000000 2.076412 -5.357076 -8.773701 -113.784944 -61.053933 53.850546 178.429361 -79.495235 179.735549 10.442958 -21.126410 -2.041989 0.174778 1.177815 -0.000000 0.000000 0.000000 0.000000 0.000000 0.000000 0.000000 -19.343087 7.795809 7.453051 -21.826047 33.779336 -70.026604 -0.714034 3.315645 -0.074589 -15.629408 13.387572 -2.028346 0.578196 -0.789657 -0.000000 0.000000 0.000000 0.000000 0.000000 0.000000 0.000000 
2.175494 16.592339 3.184899 12.246494 -40.429971 23.217671 -10.850617 -0.008804 0.247785 -1.421577 0.754330 -3.852198 1.499870 0.667187 -5.140496 -4.994853 -0.903910 -3.091102 1.826813 0.055663 1.057093 0.000000 0.000000 0.000000 1.892030 -5.641819 -8.753467 -114.170339 -61.030682 54.035743 178.435264 -79.630031 179.734717 10.503012 -21.105316 -2.051568 0.175440 1.175060 -0.000000 0.000000 0.000000 0.000000 0.000000 0.000000 0.000000 -20.675867 7.790225 7.141777 -18.889181 34.153471 -74.303541 -1.094677 5.565903 -0.079359 -14.256556 13.894774 -1.918757 0.505507 -0.833194 -0.000000 0.000000 0.000000 0.000000 0.000000 0.000000 0.000000 
2.189839 16.573149 3.217403 12.050218 -39.835873 23.717442 -10.595082 -0.167635 0.127329 -1.344052 0.588575 -3.897111 1.562987 0.497667 -5.236728 -4.994922 -0.898861 -2.945252 1.937375 0.059879 1.097629 0.000000 0.000000 0.000000 1.880759 -5.936255 -8.719311 -114.554939 -61.016900 54.266223 178.443033 -79.777019 179.734001 10.534228 -21.093439 -2.056532 0.175962 1.175207 -0.000000 0.000000 0.000000 0.000000 0.000000 0.000000 0.000000 -21.285956 7.789143 6.851646 -16.453547 34.293633 -76.388390 -1.320987 7.996084 -0.087203 -13.742542 13.475530 -1.794957 0.468705 -0.843143 -0.000000 0.000000 0.000000 0.000000 0.000000 0.000000 0.000000 
2.204475 16.557632 3.247360 11.850584 -39.324001 24.192876 -10.384890 -0.303536 0.027305 -1.301570 0.444693 -3.944945 1.528657 0.351024 -5.355782 -4.816192 -0.885157 -2.781865 1.983540 0.059443 1.142544 0.000000 0.000000 0.000000 2.005421 -6.212079 -8.673907 -114.956795 -61.021328 54.556349 178.449659 -79.922744 179.733377 10.533897 -21.091535 -2.056191 0.177042 1.177075 -0.000000 0.000000 0.000000 0.000000 0.000000 0.000000 0.000000 -21.441935 7.744078 6.561231 -14.250904 34.306677 -77.323847 -1.481430 10.670017 -0.098633 -13.908699 12.601790 -1.702251 0.455952 -0.837303 -0.000000 0.000000 0.000000 0.000000 0.000000 0.000000 0.000000 
2.218829 16.545704 3.274661 11.650457 -38.899914 24.631408 -10.224247 -0.418891 -0.046745 -1.288335 0.320840 -3.991663 1.425870 0.225044 -5.487040 -4.496734 -0.891037 -2.604620 1.983418 0.055668 1.190884 0.000000 0.000000 0.000000 2.238883 -6.447502 -8.614384 -115.346052 -61.050510 54.888863 178.454202 -80.058187 179.732882 10.505671 -21.091522 -2.050549 0.178705 1.180043 -0.000000 0.000000 0.000000 0.000000 0.000000 0.000000 0.000000 -21.262264 7.639386 6.260407 -12.174565 34.254444 -77.498671 -1.601651 13.634934 -0.113599 -14.596579 11.515547 -1.637740 0.458867 -0.824083 -0.000000 0.000000 0.000000 0.000000 0.000000 0.000000 0.000000 
2.232568 16.537237 3.299678 11.443609 -38.567040 25.039315 -10.101728 -0.518168 -0.104194 -1.294932 0.213086 -4.036630 1.283282 0.115289 -5.620796 -4.080749 -0.924519 -2.415229 1.953287 0.049680 1.242427 0.000000 0.000000 0.000000 2.537548 -6.618207 -8.536649 -115.674045 -61.112141 55.233302 178.455637 -80.170006 179.732504 10.461395 -21.081736 -2.040706 0.180668 1.183585 -0.000000 0.000000 0.000000 0.000000 0.000000 0.000000 0.000000 -20.866018 7.476727 5.939504 -10.124393 34.185237 -77.156436 -1.692619 16.928126 -0.131423 -15.623663 10.407383 -1.591417 0.469089 -0.809735 -0.000000 0.000000 0.000000 0.000000 0.000000 0.000000 0.000000 
2.245390 16.531867 3.322792 11.232542 -38.284073 25.411609 -10.000854 -0.617285 -0.145228 -1.312998 0.105200 -4.078577 1.116751 0.005354 -5.752078 -3.586940 -0.964755 -2.211401 1.899116 0.041836 1.298022 0.000000 0.000000 0.000000 2.876176 -6.718655 -8.437342 -115.889053 -61.208047 55.548090 178.454508 -80.253163 179.732282 10.411648 -21.052275 -2.028057 0.182482 1.187414 -0.000000 0.000000 0.000000 0.000000 0.000000 0.000000 0.000000 -20.296869 7.273033 5.598443 -8.080224 34.100980 -76.356084 -1.748975 20.551489 -0.151295 -16.872059 9.392856 -1.559477 0.481421 -0.797220 -0.000000 0.000000 0.000000 0.000000 0.000000 0.000000 0.000000 
2.257287 16.529266 3.344717 11.005478 -38.086112 25.758715 -9.914862 -0.712041 -0.187898 -1.338078 0.002171 -4.119921 0.941706 -0.099945 -5.874486 -3.039276 -0.982639 -1.992766 1.826830 0.032517 1.358156 0.000000 0.000000 0.000000 3.225889 -6.738216 -8.315100 -115.938750 -61.336909 55.784944 178.451176 -80.302369 179.732195 10.368434 -20.995608 -2.014303 0.183737 1.191273 -0.000000 0.000000 0.000000 0.000000 0.000000 0.000000 0.000000 -19.602792 7.062639 5.241059 -6.032699 33.990525 -75.169723 -1.766605 24.485676 -0.172159 -18.236153 8.571268 -1.546915 0.491713 -0.788571 -0.000000 0.000000 0.000000 0.000000 0.000000 0.000000 0.000000 
2.268118 16.528805 3.365872 10.773263 -37.962833 26.067355 -9.843486 -0.809276 -0.231856 -1.367723 -0.102582 -4.159556 0.766618 -0.207068 -5.983674 -2.451004 -0.957888 -1.759449 1.738964 0.021901 1.422917 0.000000 0.000000 0.000000 3.574680 -6.680724 -8.171902 -115.788768 -61.495050 55.902291 178.446685 -80.316733 179.732256 10.340750 -20.908308 -2.000839 0.184018 1.194998 -0.000000 0.000000 0.000000 0.000000 0.000000 0.000000 0.000000 -18.801643 6.866171 4.875979 -4.011621 33.843788 -73.680344 -1.742459 28.675760 -0.192999 -19.653522 8.006150 -1.564725 0.497961 -0.784118 -0.000000 0.000000 0.000000 0.000000 0.000000 0.000000 0.000000 
